<svg width="112" height="42" viewBox="0 0 112 42" fill="none" xmlns="http://www.w3.org/2000/svg">
<g clip-path="url(#clip0_403_148)">
<rect width="112" height="42" fill="white"/>
<path d="M30.9023 30.4731C29.8838 30.9136 28.7 31.2302 27.3511 31.4229C26.0022 31.6156 24.7496 31.7119 23.5934 31.7119C19.8494 31.7119 16.9175 30.7346 14.7978 28.7801C12.678 26.8255 11.6182 23.8248 11.6182 19.778C11.6182 15.6486 12.7331 12.5654 14.963 10.5282C17.1928 8.46353 20.3311 7.43119 24.3779 7.43119C26.305 7.43119 28.3146 7.69271 30.4068 8.21577C30.4068 8.76635 30.3518 9.59222 30.2416 10.6934C30.1315 11.767 30.0214 12.5241 29.9113 12.9646H27.3098C25.4103 12.9646 23.9099 13.0058 22.8088 13.0884C21.7351 13.1435 21.0882 13.2674 20.868 13.4601C20.455 13.8455 20.1384 14.6301 19.9182 15.8138C19.698 16.97 19.5879 18.085 19.5879 19.1586C19.5879 21.0306 19.8219 22.4759 20.2899 23.4945C20.7578 24.4855 21.3497 25.1462 22.0655 25.4766C22.7537 25.8069 23.8962 25.9721 25.4929 25.9721C26.7592 25.9721 28.411 25.862 30.4481 25.6417L30.9023 30.4731Z" fill="#0E1414"/>
<path d="M46.6227 23.7422L46.953 75.561H39.1898V23.8248L31.2614 7.72025H38.8182L41.9565 15.3596C42.2868 16.1304 42.5897 16.9425 42.8649 17.7959H42.9475C43.2504 16.8599 43.5532 16.0203 43.856 15.277L46.953 7.72025H54.4685L46.6227 23.7422Z" fill="#0E1414"/>
<path d="M66.9211 26.096H60.0664L58.8276 31.2577H51.2295L58.8276 7.72025H68.5316L75.7993 31.2577H68.1599L66.9211 26.096ZM63.4525 12.7994L61.0161 21.5124H65.9301L63.6176 12.7994H63.4525Z" fill="#0E1414"/>
<path d="M84.7487 21.7601V31.4229H77.8527V7.72025H84.8313L91.0667 17.2178C92.0027 18.6218 92.7184 19.8055 93.214 20.7691H93.3378L93.1727 -28.7932H99.3359L100.193 31.2577H93.1727L86.7721 21.3472L84.9139 18.5392H84.79L84.7487 21.7601Z" fill="#0E1414"/>
<rect x="106.244" y="-6.15918" width="10.7784" height="117.862" fill="#0E1414"/>
<rect x="-5.45898" y="5.45923" width="10.7784" height="106.244" fill="#0E1414"/>
<rect y="5.45923" width="10.7784" height="111.703" transform="rotate(-90 0 5.45923)" fill="#0E1414"/>
<rect y="43.9492" width="10.7784" height="111.703" transform="rotate(-90 0 43.9492)" fill="#0E1414"/>
</g>
<defs>
<clipPath id="clip0_403_148">
<rect width="112" height="42" fill="white"/>
</clipPath>
</defs>
</svg>
