<svg width="112" height="39" viewBox="0 0 112 39" fill="none" xmlns="http://www.w3.org/2000/svg">
<g clip-path="url(#clip0_399_132)">
<rect width="112" height="38.2439" transform="translate(0 0.463379)" fill="#07B0B0"/>
<path d="M30.9023 30.9365C29.8838 31.3769 28.7 31.6935 27.3511 31.8862C26.0022 32.0789 24.7496 32.1753 23.5934 32.1753C19.8494 32.1753 16.9175 31.198 14.7978 29.2434C12.678 27.2889 11.6182 24.2882 11.6182 20.2414C11.6182 16.112 12.7331 13.0288 14.963 10.9916C17.1928 8.92691 20.3311 7.89457 24.3779 7.89457C26.305 7.89457 28.3146 8.15609 30.4068 8.67915C30.4068 9.22973 30.3518 10.0556 30.2416 11.1568C30.1315 12.2304 30.0214 12.9875 29.9113 13.4279H27.3098C25.4103 13.4279 23.9099 13.4692 22.8088 13.5518C21.7351 13.6069 21.0882 13.7308 20.868 13.9235C20.455 14.3089 20.1384 15.0934 19.9182 16.2772C19.698 17.4334 19.5879 18.5484 19.5879 19.622C19.5879 21.494 19.8219 22.9393 20.2899 23.9578C20.7578 24.9489 21.3497 25.6096 22.0655 25.9399C22.7537 26.2703 23.8962 26.4355 25.4929 26.4355C26.7592 26.4355 28.411 26.3253 30.4481 26.1051L30.9023 30.9365Z" fill="white"/>
<path d="M46.6227 24.2056L46.953 76.0244H39.1898V24.2882L31.2614 8.18362H38.8182L41.9565 15.823C42.2868 16.5938 42.5897 17.4059 42.8649 18.2593H42.9475C43.2504 17.3233 43.5532 16.4837 43.856 15.7404L46.953 8.18362H54.4685L46.6227 24.2056Z" fill="white"/>
<path d="M66.9211 26.5593H60.0664L58.8276 31.7211H51.2295L58.8276 8.18362H68.5316L75.7993 31.7211H68.1599L66.9211 26.5593ZM63.4525 13.2628L61.0161 21.9757H65.9301L63.6176 13.2628H63.4525Z" fill="white"/>
<path d="M84.7487 22.2235V31.8862H77.8527V8.18362H84.8313L91.0667 17.6812C92.0027 19.0852 92.7184 20.2689 93.214 21.2324H93.3378L93.1727 -28.3298H99.3359L100.193 31.7211H93.1727L86.7721 21.8106L84.9139 19.0026H84.79L84.7487 22.2235Z" fill="white"/>
<rect x="106.244" y="-5.6958" width="10.7784" height="117.862" fill="white"/>
<rect x="-5.45898" y="5.92261" width="10.7784" height="106.244" fill="white"/>
<rect y="5.92261" width="10.7784" height="111.703" transform="rotate(-90 0 5.92261)" fill="white"/>
<rect y="44.4126" width="10.7784" height="111.703" transform="rotate(-90 0 44.4126)" fill="white"/>
</g>
<defs>
<clipPath id="clip0_399_132">
<rect width="112" height="38.2439" fill="white" transform="translate(0 0.463379)"/>
</clipPath>
</defs>
</svg>
